{
  "accessors": [
    {
      "bufferView": 2,
      "componentType": 5126,
      "count": 3475,
      "max": [
        5.603055953979492,
        1.5399999618530273,
        5.603055953979492
      ],
      "min": [
        -5.603055953979492,
        0.03999999910593033,
        -5.603055953979492
      ],
      "type": "VEC3"
    },
    {
      "bufferView": 2,
      "byteOffset": 41700,
      "componentType": 5126,
      "count": 3475,
      "max": [
        1.0,
        1.0,
        1.0
      ],
      "min": [
        -1.0,
        -1.0,
        -1.0
      ],
      "type": "VEC3"
    },
    {
      "bufferView": 1,
      "componentType": 5126,
      "count": 3475,
      "max": [
        0.9960936903953552,
        0.9584264159202576
      ],
      "min": [
        0.00390625,
        0.00390625
      ],
      "type": "VEC2"
    },
    {
      "bufferView": 0,
      "componentType": 5125,
      "count": 11544,
      "type": "SCALAR"
    },
    {
      "bufferView": 2,
      "byteOffset": 83400,
      "componentType": 5126,
      "count": 886,
      "max": [
        4.558799743652344,
        0.03999999910593033,
        2.820178985595703
      ],
      "min": [
        -4.558799743652344,
        0.0,
        -5.1990203857421875
      ],
      "type": "VEC3"
    },
    {
      "bufferView": 2,
      "byteOffset": 94032,
      "componentType": 5126,
      "count": 886,
      "max": [
        1.0,
        0.0,
        1.0
      ],
      "min": [
        -1.0,
        -1.0,
        -1.0
      ],
      "type": "VEC3"
    },
    {
      "bufferView": 1,
      "byteOffset": 27800,
      "componentType": 5126,
      "count": 886,
      "max": [
        0.48887869715690613,
        0.19177162647247314
      ],
      "min": [
        0.00390625,
        0.00390625
      ],
      "type": "VEC2"
    },
    {
      "bufferView": 0,
      "byteOffset": 46176,
      "componentType": 5125,
      "count": 1296,
      "type": "SCALAR"
    },
    {
      "bufferView": 2,
      "byteOffset": 104664,
      "componentType": 5126,
      "count": 61570,
      "max": [
        9.30000114440918,
        4.698521614074707,
        6.350000381469727
      ],
      "min": [
        -9.30000114440918,
        -0.501478910446167,
        -6.350000381469727
      ],
      "type": "VEC3"
    },
    {
      "bufferView": 2,
      "byteOffset": 843504,
      "componentType": 5126,
      "count": 61570,
      "max": [
        1.0,
        1.0,
        1.0
      ],
      "min": [
        -1.0,
        -1.0,
        -1.0
      ],
      "type": "VEC3"
    },
    {
      "bufferView": 1,
      "byteOffset": 34888,
      "componentType": 5126,
      "count": 61570,
      "max": [
        0.981699526309967,
        0.9958115816116333
      ],
      "min": [
        0.00390625,
        0.00390625
      ],
      "type": "VEC2"
    },
    {
      "bufferView": 0,
      "byteOffset": 51360,
      "componentType": 5125,
      "count": 343872,
      "type": "SCALAR"
    },
    {
      "bufferView": 2,
      "byteOffset": 1582344,
      "componentType": 5126,
      "count": 1935,
      "max": [
        3.329566717147827,
        2.4375,
        4.530704021453857
      ],
      "min": [
        -3.329566717147827,
        0.0,
        -4.530704021453857
      ],
      "type": "VEC3"
    },
    {
      "bufferView": 2,
      "byteOffset": 1605564,
      "componentType": 5126,
      "count": 1935,
      "max": [
        0.999655544757843,
        1.0,
        0.9999786019325256
      ],
      "min": [
        -1.0,
        -1.0,
        -0.9995789527893066
      ],
      "type": "VEC3"
    },
    {
      "bufferView": 3,
      "componentType": 5126,
      "count": 1935,
      "max": [
        1.0,
        0.27776196599006653,
        1.0,
        1.0
      ],
      "min": [
        -1.0,
        -0.28664302825927734,
        -1.0,
        1.0
      ],
      "type": "VEC4"
    },
    {
      "bufferView": 1,
      "byteOffset": 527448,
      "componentType": 5126,
      "count": 1935,
      "max": [
        0.9960938096046448,
        0.99609375
      ],
      "min": [
        0.00390625,
        0.00390625
      ],
      "type": "VEC2"
    },
    {
      "bufferView": 1,
      "byteOffset": 542928,
      "componentType": 5126,
      "count": 1935,
      "max": [
        0.9960938096046448,
        0.99609375
      ],
      "min": [
        0.00390625,
        0.00390625
      ],
      "type": "VEC2"
    },
    {
      "bufferView": 0,
      "byteOffset": 1426848,
      "componentType": 5125,
      "count": 10128,
      "type": "SCALAR"
    },
    {
      "bufferView": 2,
      "byteOffset": 1628784,
      "componentType": 5126,
      "count": 1991,
      "max": [
        3.329566717147827,
        2.4375,
        4.530704021453857
      ],
      "min": [
        -3.329566717147827,
        3.0237681259593513e-16,
        -4.530704021453857
      ],
      "type": "VEC3"
    },
    {
      "bufferView": 2,
      "byteOffset": 1652676,
      "componentType": 5126,
      "count": 1991,
      "max": [
        0.9999999403953552,
        1.0,
        0.9999786019325256
      ],
      "min": [
        -0.999655544757843,
        -1.0,
        -0.9995789527893066
      ],
      "type": "VEC3"
    },
    {
      "bufferView": 3,
      "byteOffset": 30960,
      "componentType": 5126,
      "count": 1991,
      "max": [
        1.0,
        0.27776193618774414,
        1.0,
        -1.0
      ],
      "min": [
        -1.0,
        -0.2866431176662445,
        -1.0,
        -1.0
      ],
      "type": "VEC4"
    },
    {
      "bufferView": 1,
      "byteOffset": 558408,
      "componentType": 5126,
      "count": 1991,
      "max": [
        0.9960938096046448,
        0.99609375
      ],
      "min": [
        0.00390625,
        0.00390625
      ],
      "type": "VEC2"
    },
    {
      "bufferView": 1,
      "byteOffset": 574336,
      "componentType": 5126,
      "count": 1991,
      "max": [
        0.9960938096046448,
        0.99609375
      ],
      "min": [
        0.00390625,
        0.00390625
      ],
      "type": "VEC2"
    },
    {
      "bufferView": 0,
      "byteOffset": 1467360,
      "componentType": 5125,
      "count": 10128,
      "type": "SCALAR"
    }
  ],
  "asset": {
    "extras": {
      "author": "AlLEXSam (https://sketchfab.com/AlLEXSam)",
      "license": "SKETCHFAB Standard (https://sketchfab.com/licenses)",
      "source": "https://sketchfab.com/3d-models/yuanhe-playing-card-tray-3f3b702f80374ab8b754ad7025a45139",
      "title": "Yuanhe Playing Card Tray"
    },
    "generator": "Sketchfab-15.50.0",
    "version": "2.0"
  },
  "bufferViews": [
    {
      "buffer": 0,
      "byteLength": 1507872,
      "name": "floatBufferViews",
      "target": 34963
    },
    {
      "buffer": 0,
      "byteLength": 590264,
      "byteOffset": 1507872,
      "byteStride": 8,
      "name": "floatBufferViews",
      "target": 34962
    },
    {
      "buffer": 0,
      "byteLength": 1676568,
      "byteOffset": 2098136,
      "byteStride": 12,
      "name": "floatBufferViews",
      "target": 34962
    },
    {
      "buffer": 0,
      "byteLength": 62816,
      "byteOffset": 3774704,
      "byteStride": 16,
      "name": "floatBufferViews",
      "target": 34962
    }
  ],
  "buffers": [
    {
      "byteLength": 3837520,
      "uri": "scene.bin"
    }
  ],
  "extensionsUsed": [
    "KHR_materials_clearcoat",
    "KHR_materials_transmission"
  ],
  "images": [
    {
      "uri": "textures/Card_deck_baseColor.png"
    },
    {
      "uri": "textures/Card_deck_metallicRoughness.png"
    },
    {
      "uri": "textures/Card_deck_normal.png"
    }
  ],
  "materials": [
    {
      "doubleSided": true,
      "name": "White",
      "pbrMetallicRoughness": {
        "baseColorFactor": [
          0.8,
          0.8,
          0.8,
          1.0
        ],
        "metallicFactor": 0.0,
        "roughnessFactor": 0.9524317153998911
      }
    },
    {
      "doubleSided": true,
      "name": "Rubber",
      "pbrMetallicRoughness": {
        "baseColorFactor": [
          0.00612346072391869,
          0.00612346072391869,
          0.00612346072391869,
          1.0
        ],
        "metallicFactor": 0.0,
        "roughnessFactor": 0.8454829619282126
      }
    },
    {
      "alphaMode": "BLEND",
      "doubleSided": true,
      "extensions": {
        "KHR_materials_clearcoat": {
          "clearcoatFactor": 1.0,
          "clearcoatRoughnessFactor": 0.03
        },
        "KHR_materials_transmission": {
          "transmissionFactor": 0.9334706842442647
        }
      },
      "name": "Glass",
      "pbrMetallicRoughness": {
        "baseColorFactor": [
          0.8,
          0.8,
          0.8,
          0.25
        ],
        "roughnessFactor": 0.23692542585596468
      }
    },
    {
      "doubleSided": true,
      "extensions": {
        "KHR_materials_clearcoat": {
          "clearcoatFactor": 0.6020599474993135,
          "clearcoatRoughnessFactor": 0.08478604183790271
        }
      },
      "name": "Card_deck",
      "normalTexture": {
        "index": 2
      },
      "pbrMetallicRoughness": {
        "baseColorTexture": {
          "index": 0
        },
        "metallicFactor": 0.0,
        "metallicRoughnessTexture": {
          "index": 1
        }
      }
    }
  ],
  "meshes": [
    {
      "name": "Base_White_0",
      "primitives": [
        {
          "attributes": {
            "NORMAL": 1,
            "POSITION": 0,
            "TEXCOORD_0": 2
          },
          "indices": 3,
          "material": 0,
          "mode": 4
        }
      ]
    },
    {
      "name": "Base_Rubber_0",
      "primitives": [
        {
          "attributes": {
            "NORMAL": 5,
            "POSITION": 4,
            "TEXCOORD_0": 6
          },
          "indices": 7,
          "material": 1,
          "mode": 4
        }
      ]
    },
    {
      "name": "Tray_Glass_0",
      "primitives": [
        {
          "attributes": {
            "NORMAL": 9,
            "POSITION": 8,
            "TEXCOORD_0": 10
          },
          "indices": 11,
          "material": 2,
          "mode": 4
        }
      ]
    },
    {
      "name": "Card_deck_Card_deck_0",
      "primitives": [
        {
          "attributes": {
            "NORMAL": 13,
            "POSITION": 12,
            "TANGENT": 14,
            "TEXCOORD_0": 15,
            "TEXCOORD_1": 16
          },
          "indices": 17,
          "material": 3,
          "mode": 4
        }
      ]
    },
    {
      "name": "Card_deck_1_Card_deck_0",
      "primitives": [
        {
          "attributes": {
            "NORMAL": 19,
            "POSITION": 18,
            "TANGENT": 20,
            "TEXCOORD_0": 21,
            "TEXCOORD_1": 22
          },
          "indices": 23,
          "material": 3,
          "mode": 4
        }
      ]
    }
  ],
  "nodes": [
    {
      "children": [
        1
      ],
      "matrix": [
        5.650229454040527,
        0.0,
        0.0,
        0.0,
        0.0,
        1.2546029668582042e-15,
        -5.650229454040527,
        0.0,
        0.0,
        5.650229454040527,
        1.2546029668582042e-15,
        0.0,
        0.0,
        0.0,
        0.0,
        1.0
      ],
      "name": "Sketchfab_model"
    },
    {
      "children": [
        2
      ],
      "matrix": [
        0.009999999776482582,
        0.0,
        0.0,
        0.0,
        0.0,
        0.0,
        0.009999999776482582,
        0.0,
        0.0,
        -0.009999999776482582,
        0.0,
        0.0,
        0.0,
        0.0,
        0.0,
        1.0
      ],
      "name": "2d3a70730d314a22a497e7e7535a91aa.fbx"
    },
    {
      "children": [
        3,
        9,
        11
      ],
      "name": "RootNode"
    },
    {
      "children": [
        4,
        7
      ],
      "name": "Yuanhe_Playing_Card_Tray"
    },
    {
      "children": [
        5,
        6
      ],
      "name": "Base"
    },
    {
      "mesh": 0,
      "name": "Base_White_0"
    },
    {
      "mesh": 1,
      "name": "Base_Rubber_0"
    },
    {
      "children": [
        8
      ],
      "matrix": [
        1.0,
        0.0,
        0.0,
        0.0,
        0.0,
        1.0,
        0.0,
        0.0,
        0.0,
        0.0,
        1.0,
        0.0,
        0.0,
        0.9414788484573364,
        4.440892098500626e-16,
        1.0
      ],
      "name": "Tray"
    },
    {
      "mesh": 2,
      "name": "Tray_Glass_0"
    },
    {
      "children": [
        10
      ],
      "matrix": [
        1.0,
        0.0,
        0.0,
        0.0,
        0.0,
        1.0,
        0.0,
        0.0,
        0.0,
        0.0,
        1.0,
        0.0,
        -4.425075531005859,
        1.6400001049041748,
        -0.11446970701217651,
        1.0
      ],
      "name": "Card_deck"
    },
    {
      "mesh": 3,
      "name": "Card_deck_Card_deck_0"
    },
    {
      "children": [
        12
      ],
      "matrix": [
        0.999982866456269,
        -1.4685212444503202e-08,
        -0.005853784579520851,
        0.0,
        1.469975729910759e-08,
        0.9999999999999999,
        2.441667518800386e-09,
        0.0,
        0.005853784579520815,
        -2.527674896983391e-09,
        0.9999828664562691,
        0.0,
        4.445789813995361,
        1.6399997472763062,
        0.06550522893667221,
        1.0
      ],
      "name": "Card_deck_1"
    },
    {
      "mesh": 4,
      "name": "Card_deck_1_Card_deck_0"
    }
  ],
  "samplers": [
    {
      "magFilter": 9729,
      "minFilter": 9987,
      "wrapS": 10497,
      "wrapT": 10497
    }
  ],
  "scene": 0,
  "scenes": [
    {
      "name": "Sketchfab_Scene",
      "nodes": [
        0
      ]
    }
  ],
  "textures": [
    {
      "sampler": 0,
      "source": 0
    },
    {
      "sampler": 0,
      "source": 1
    },
    {
      "sampler": 0,
      "source": 2
    }
  ]
}
