{
  "accessors": [
    {
      "bufferView": 2,
      "componentType": 5126,
      "count": 25095,
      "max": [
        7439.466796875,
        7365.8193359375,
        3823.401611328125
      ],
      "min": [
        3.331899642944336,
        -7365.8193359375,
        -3823.401611328125
      ],
      "type": "VEC3"
    },
    {
      "bufferView": 2,
      "byteOffset": 301140,
      "componentType": 5126,
      "count": 25095,
      "max": [
        1.0,
        1.0,
        1.0
      ],
      "min": [
        -1.0,
        -1.0,
        -1.0
      ],
      "type": "VEC3"
    },
    {
      "bufferView": 3,
      "componentType": 5126,
      "count": 25095,
      "max": [
        1.0,
        1.0,
        1.0,
        1.0
      ],
      "min": [
        -1.0,
        -1.0,
        -1.0,
        -1.0
      ],
      "type": "VEC4"
    },
    {
      "bufferView": 1,
      "componentType": 5126,
      "count": 25095,
      "max": [
        0.9984081983566284,
        0.999755859375
      ],
      "min": [
        0.000244140625,
        0.000244140625
      ],
      "type": "VEC2"
    },
    {
      "bufferView": 1,
      "byteOffset": 200760,
      "componentType": 5126,
      "count": 25095,
      "max": [
        0.9984081983566284,
        0.999755859375
      ],
      "min": [
        0.000244140625,
        0.000244140625
      ],
      "type": "VEC2"
    },
    {
      "bufferView": 1,
      "byteOffset": 401520,
      "componentType": 5126,
      "count": 25095,
      "max": [
        0.9984081983566284,
        0.999755859375
      ],
      "min": [
        0.000244140625,
        0.000244140625
      ],
      "type": "VEC2"
    },
    {
      "bufferView": 0,
      "componentType": 5125,
      "count": 76338,
      "type": "SCALAR"
    }
  ],
  "asset": {
    "extras": {
      "author": "gulerbrkn (https://sketchfab.com/gulerbrkn)",
      "license": "CC-BY-4.0 (http://creativecommons.org/licenses/by/4.0/)",
      "source": "https://sketchfab.com/3d-models/antique-wooden-table-d837a7e46ca446b88119451a7b4473bc",
      "title": "Antique Wooden Table"
    },
    "generator": "Sketchfab-15.77.0",
    "version": "2.0"
  },
  "bufferViews": [
    {
      "buffer": 0,
      "byteLength": 305352,
      "name": "floatBufferViews",
      "target": 34963
    },
    {
      "buffer": 0,
      "byteLength": 602280,
      "byteOffset": 305352,
      "byteStride": 8,
      "name": "floatBufferViews",
      "target": 34962
    },
    {
      "buffer": 0,
      "byteLength": 602280,
      "byteOffset": 907632,
      "byteStride": 12,
      "name": "floatBufferViews",
      "target": 34962
    },
    {
      "buffer": 0,
      "byteLength": 401520,
      "byteOffset": 1509912,
      "byteStride": 16,
      "name": "floatBufferViews",
      "target": 34962
    }
  ],
  "buffers": [
    {
      "byteLength": 1911432,
      "uri": "scene.bin"
    }
  ],
  "images": [
    {
      "uri": "textures/Circle.019_Baked_baseColor.jpeg"
    },
    {
      "uri": "textures/Circle.019_Baked_metallicRoughness.png"
    },
    {
      "uri": "textures/Circle.019_Baked_normal.png"
    }
  ],
  "materials": [
    {
      "doubleSided": true,
      "name": "Circle.019_Baked",
      "normalTexture": {
        "index": 2
      },
      "pbrMetallicRoughness": {
        "baseColorTexture": {
          "index": 0
        },
        "metallicRoughnessTexture": {
          "index": 1
        }
      }
    }
  ],
  "meshes": [
    {
      "name": "Circle.019_Baked_Circle.019_Baked_0",
      "primitives": [
        {
          "attributes": {
            "NORMAL": 1,
            "POSITION": 0,
            "TANGENT": 2,
            "TEXCOORD_0": 3,
            "TEXCOORD_1": 4,
            "TEXCOORD_2": 5
          },
          "indices": 6,
          "material": 0,
          "mode": 4
        }
      ]
    }
  ],
  "nodes": [
    {
      "children": [
        1
      ],
      "matrix": [
        1.0,
        -3.5707495248565405e-32,
        1.6081226229577292e-16,
        0.0,
        1.6081226229577292e-16,
        2.220446049250313e-16,
        -1.0,
        0.0,
        0.0,
        1.0,
        2.220446049250313e-16,
        0.0,
        0.0,
        0.0,
        0.0,
        1.0
      ],
      "name": "Sketchfab_model"
    },
    {
      "children": [
        2
      ],
      "matrix": [
        0.009999999776482582,
        0.0,
        0.0,
        0.0,
        0.0,
        0.0,
        0.009999999776482582,
        0.0,
        0.0,
        -0.009999999776482582,
        0.0,
        0.0,
        0.0,
        0.0,
        0.0,
        1.0
      ],
      "name": "SM_Table.fbx"
    },
    {
      "children": [
        3
      ],
      "name": "RootNode"
    },
    {
      "children": [
        4
      ],
      "matrix": [
        -4.3711389086069064e-10,
        0.009999999776482573,
        -1.1102229998097382e-18,
        0.0,
        4.3711389141580214e-10,
        1.9984013996575287e-17,
        0.009999999776482573,
        0.0,
        0.009999999776482563,
        4.3711389141580214e-10,
        -4.3711389086069064e-10,
        0.0,
        0.0,
        0.0,
        0.0,
        1.0
      ],
      "name": "Circle.019_Baked"
    },
    {
      "mesh": 0,
      "name": "Circle.019_Baked_Circle.019_Baked_0"
    }
  ],
  "samplers": [
    {
      "magFilter": 9729,
      "minFilter": 9987,
      "wrapS": 10497,
      "wrapT": 10497
    }
  ],
  "scene": 0,
  "scenes": [
    {
      "name": "Sketchfab_Scene",
      "nodes": [
        0
      ]
    }
  ],
  "textures": [
    {
      "sampler": 0,
      "source": 0
    },
    {
      "sampler": 0,
      "source": 1
    },
    {
      "sampler": 0,
      "source": 2
    }
  ]
}
